<mxfile host="app.diagrams.net" modified="2024-02-17T23:51:02.502Z" agent="Mozilla/5.0 (Windows NT 10.0; Win64; x64) AppleWebKit/537.36 (KHTML, like Gecko) Chrome/121.0.0.0 Safari/537.36 Edg/121.0.0.0" version="23.1.5" etag="oAePQD9mxHOMAtGJSOzv" type="device">
  <diagram id="j9TapZWpIalqRJN8KaHm" name="Page-1">
    <mxGraphModel dx="1561" dy="768" grid="1" gridSize="10" guides="1" tooltips="1" connect="1" arrows="1" fold="1" page="1" pageScale="1" pageWidth="850" pageHeight="1100" math="0" shadow="0">
      <root>
        <mxCell id="0" />
        <mxCell id="1" parent="0" />
        <mxCell id="63bty6cVrEXLkM-6jVtI-1" value="Polymorphism" style="rounded=0;whiteSpace=wrap;html=1;" vertex="1" parent="1">
          <mxGeometry x="270" y="30" width="290" height="60" as="geometry" />
        </mxCell>
        <mxCell id="63bty6cVrEXLkM-6jVtI-2" value="Activity" style="swimlane;fontStyle=1;align=center;verticalAlign=top;childLayout=stackLayout;horizontal=1;startSize=26;horizontalStack=0;resizeParent=1;resizeParentMax=0;resizeLast=0;collapsible=1;marginBottom=0;whiteSpace=wrap;html=1;" vertex="1" parent="1">
          <mxGeometry x="290" y="140" width="230" height="120" as="geometry" />
        </mxCell>
        <mxCell id="63bty6cVrEXLkM-6jVtI-3" value="+ _minutes: int&lt;br&gt;+ _date: string" style="text;strokeColor=none;fillColor=none;align=left;verticalAlign=top;spacingLeft=4;spacingRight=4;overflow=hidden;rotatable=0;points=[[0,0.5],[1,0.5]];portConstraint=eastwest;whiteSpace=wrap;html=1;" vertex="1" parent="63bty6cVrEXLkM-6jVtI-2">
          <mxGeometry y="26" width="230" height="44" as="geometry" />
        </mxCell>
        <mxCell id="63bty6cVrEXLkM-6jVtI-4" value="" style="line;strokeWidth=1;fillColor=none;align=left;verticalAlign=middle;spacingTop=-1;spacingLeft=3;spacingRight=3;rotatable=0;labelPosition=right;points=[];portConstraint=eastwest;strokeColor=inherit;" vertex="1" parent="63bty6cVrEXLkM-6jVtI-2">
          <mxGeometry y="70" width="230" height="8" as="geometry" />
        </mxCell>
        <mxCell id="63bty6cVrEXLkM-6jVtI-5" value="+ public Activity(int minutes, string date)&lt;br&gt;+ GetSummary(): virtual string" style="text;strokeColor=none;fillColor=none;align=left;verticalAlign=top;spacingLeft=4;spacingRight=4;overflow=hidden;rotatable=0;points=[[0,0.5],[1,0.5]];portConstraint=eastwest;whiteSpace=wrap;html=1;" vertex="1" parent="63bty6cVrEXLkM-6jVtI-2">
          <mxGeometry y="78" width="230" height="42" as="geometry" />
        </mxCell>
        <mxCell id="63bty6cVrEXLkM-6jVtI-20" style="edgeStyle=orthogonalEdgeStyle;rounded=0;orthogonalLoop=1;jettySize=auto;html=1;exitX=0.5;exitY=0;exitDx=0;exitDy=0;entryX=0.538;entryY=1.002;entryDx=0;entryDy=0;entryPerimeter=0;" edge="1" parent="63bty6cVrEXLkM-6jVtI-2">
          <mxGeometry relative="1" as="geometry">
            <mxPoint x="101.31000000000012" y="329.92" as="sourcePoint" />
            <mxPoint x="100.05000000000013" y="120.00399999999999" as="targetPoint" />
          </mxGeometry>
        </mxCell>
        <mxCell id="63bty6cVrEXLkM-6jVtI-6" value="Running" style="swimlane;fontStyle=1;align=center;verticalAlign=top;childLayout=stackLayout;horizontal=1;startSize=26;horizontalStack=0;resizeParent=1;resizeParentMax=0;resizeLast=0;collapsible=1;marginBottom=0;whiteSpace=wrap;html=1;" vertex="1" parent="1">
          <mxGeometry x="70" y="330" width="220" height="110" as="geometry" />
        </mxCell>
        <mxCell id="63bty6cVrEXLkM-6jVtI-8" value="" style="line;strokeWidth=1;fillColor=none;align=left;verticalAlign=middle;spacingTop=-1;spacingLeft=3;spacingRight=3;rotatable=0;labelPosition=right;points=[];portConstraint=eastwest;strokeColor=inherit;" vertex="1" parent="63bty6cVrEXLkM-6jVtI-6">
          <mxGeometry y="26" width="220" height="8" as="geometry" />
        </mxCell>
        <mxCell id="63bty6cVrEXLkM-6jVtI-9" value="+ public Running(int minutes, string date):base(minutes, date)&lt;br&gt;+ CalculateDistance(): double&lt;br&gt;+ override GetSummary(): string" style="text;strokeColor=none;fillColor=none;align=left;verticalAlign=top;spacingLeft=4;spacingRight=4;overflow=hidden;rotatable=0;points=[[0,0.5],[1,0.5]];portConstraint=eastwest;whiteSpace=wrap;html=1;" vertex="1" parent="63bty6cVrEXLkM-6jVtI-6">
          <mxGeometry y="34" width="220" height="76" as="geometry" />
        </mxCell>
        <mxCell id="63bty6cVrEXLkM-6jVtI-10" value="StationaryBicycling" style="swimlane;fontStyle=1;align=center;verticalAlign=top;childLayout=stackLayout;horizontal=1;startSize=26;horizontalStack=0;resizeParent=1;resizeParentMax=0;resizeLast=0;collapsible=1;marginBottom=0;whiteSpace=wrap;html=1;" vertex="1" parent="1">
          <mxGeometry x="310" y="470" width="210" height="120" as="geometry" />
        </mxCell>
        <mxCell id="63bty6cVrEXLkM-6jVtI-12" value="" style="line;strokeWidth=1;fillColor=none;align=left;verticalAlign=middle;spacingTop=-1;spacingLeft=3;spacingRight=3;rotatable=0;labelPosition=right;points=[];portConstraint=eastwest;strokeColor=inherit;" vertex="1" parent="63bty6cVrEXLkM-6jVtI-10">
          <mxGeometry y="26" width="210" height="8" as="geometry" />
        </mxCell>
        <mxCell id="63bty6cVrEXLkM-6jVtI-13" value="+ public StationaryBicycling(int minutes, string date):base(minutes, date)&lt;br&gt;+ CalculateSpeed(): double&lt;br&gt;+ override GetSummary(): string" style="text;strokeColor=none;fillColor=none;align=left;verticalAlign=top;spacingLeft=4;spacingRight=4;overflow=hidden;rotatable=0;points=[[0,0.5],[1,0.5]];portConstraint=eastwest;whiteSpace=wrap;html=1;" vertex="1" parent="63bty6cVrEXLkM-6jVtI-10">
          <mxGeometry y="34" width="210" height="86" as="geometry" />
        </mxCell>
        <mxCell id="63bty6cVrEXLkM-6jVtI-14" value="Swimming" style="swimlane;fontStyle=1;align=center;verticalAlign=top;childLayout=stackLayout;horizontal=1;startSize=26;horizontalStack=0;resizeParent=1;resizeParentMax=0;resizeLast=0;collapsible=1;marginBottom=0;whiteSpace=wrap;html=1;" vertex="1" parent="1">
          <mxGeometry x="490" y="320" width="220" height="110" as="geometry" />
        </mxCell>
        <mxCell id="63bty6cVrEXLkM-6jVtI-16" value="" style="line;strokeWidth=1;fillColor=none;align=left;verticalAlign=middle;spacingTop=-1;spacingLeft=3;spacingRight=3;rotatable=0;labelPosition=right;points=[];portConstraint=eastwest;strokeColor=inherit;" vertex="1" parent="63bty6cVrEXLkM-6jVtI-14">
          <mxGeometry y="26" width="220" height="8" as="geometry" />
        </mxCell>
        <mxCell id="63bty6cVrEXLkM-6jVtI-17" value="+ public Swimming(int minutes, string date):base(minutes, date)&lt;br&gt;+ CalculatePace(): double&lt;br&gt;+ override GetSummary(): string" style="text;strokeColor=none;fillColor=none;align=left;verticalAlign=top;spacingLeft=4;spacingRight=4;overflow=hidden;rotatable=0;points=[[0,0.5],[1,0.5]];portConstraint=eastwest;whiteSpace=wrap;html=1;" vertex="1" parent="63bty6cVrEXLkM-6jVtI-14">
          <mxGeometry y="34" width="220" height="76" as="geometry" />
        </mxCell>
        <mxCell id="63bty6cVrEXLkM-6jVtI-22" style="edgeStyle=orthogonalEdgeStyle;rounded=0;orthogonalLoop=1;jettySize=auto;html=1;exitX=1;exitY=0.5;exitDx=0;exitDy=0;entryX=0.235;entryY=1.019;entryDx=0;entryDy=0;entryPerimeter=0;" edge="1" parent="1" source="63bty6cVrEXLkM-6jVtI-9" target="63bty6cVrEXLkM-6jVtI-5">
          <mxGeometry relative="1" as="geometry" />
        </mxCell>
        <mxCell id="63bty6cVrEXLkM-6jVtI-21" value="z" style="edgeStyle=orthogonalEdgeStyle;rounded=0;orthogonalLoop=1;jettySize=auto;html=1;exitX=0;exitY=0.5;exitDx=0;exitDy=0;entryX=0.654;entryY=0.977;entryDx=0;entryDy=0;entryPerimeter=0;" edge="1" parent="1" source="63bty6cVrEXLkM-6jVtI-17" target="63bty6cVrEXLkM-6jVtI-5">
          <mxGeometry relative="1" as="geometry">
            <mxPoint x="450" y="270" as="targetPoint" />
          </mxGeometry>
        </mxCell>
      </root>
    </mxGraphModel>
  </diagram>
</mxfile>
